<svg width="1385" height="1385" viewBox="0 0 1385 1385" fill="none" xmlns="http://www.w3.org/2000/svg">
<rect width="1385" height="1385" rx="692.5" fill="white"/>
<path d="M383.408 797.102C490.586 328.276 514.285 705.651 618.375 701.821C722.465 697.99 764.866 284.1 821.185 792.835" stroke="black" stroke-width="64" stroke-linecap="round"/>
<path d="M264.698 851.382C193.234 791.338 148.127 723.051 147.756 693.622C147.384 664.193 147.377 641.222 275.049 520.543" stroke="black" stroke-width="64" stroke-linecap="round"/>
<path d="M1172.98 585.887C1260.64 728.5 1260.64 701.858 1260.64 728.5C1260.64 755.142 1228.11 784.383 1151.99 849.024" stroke="black" stroke-width="64" stroke-linecap="round"/>
<path d="M1107.01 520.544C1010.72 708.301 1056.75 614.6 1021.52 686.236C986.287 757.871 1021.52 686.236 930.836 885.061" stroke="black" stroke-width="57" stroke-linecap="round"/>
</svg>
